<mxfile host="Electron" modified="2024-04-25T23:19:50.082Z" agent="Mozilla/5.0 (Windows NT 10.0; Win64; x64) AppleWebKit/537.36 (KHTML, like Gecko) draw.io/24.2.5 Chrome/120.0.6099.109 Electron/28.1.0 Safari/537.36" version="24.2.5" etag="VUskpJE_EA_yxXApQzKb" type="device">
  <diagram id="C5RBs43oDa-KdzZeNtuy" name="Page-1">
    <mxGraphModel dx="704" dy="419" grid="1" gridSize="10" guides="1" tooltips="1" connect="1" arrows="1" fold="1" page="1" pageScale="1" pageWidth="827" pageHeight="1169" background="none" math="0" shadow="0">
      <root>
        <mxCell id="WIyWlLk6GJQsqaUBKTNV-0" />
        <mxCell id="WIyWlLk6GJQsqaUBKTNV-1" parent="WIyWlLk6GJQsqaUBKTNV-0" />
        <mxCell id="zkfFHV4jXpPFQw0GAbJ--0" value="&lt;&lt;Mensagem&gt;&gt;&#xa;Dados Usuario" style="swimlane;fontStyle=2;align=center;verticalAlign=top;childLayout=stackLayout;horizontal=1;startSize=40;horizontalStack=0;resizeParent=1;resizeLast=0;collapsible=1;marginBottom=0;rounded=0;shadow=0;strokeWidth=1;" parent="WIyWlLk6GJQsqaUBKTNV-1" vertex="1">
          <mxGeometry x="40" y="40" width="160" height="118" as="geometry">
            <mxRectangle x="230" y="140" width="160" height="26" as="alternateBounds" />
          </mxGeometry>
        </mxCell>
        <mxCell id="zkfFHV4jXpPFQw0GAbJ--1" value="Nome: string" style="text;align=left;verticalAlign=top;spacingLeft=4;spacingRight=4;overflow=hidden;rotatable=0;points=[[0,0.5],[1,0.5]];portConstraint=eastwest;" parent="zkfFHV4jXpPFQw0GAbJ--0" vertex="1">
          <mxGeometry y="40" width="160" height="26" as="geometry" />
        </mxCell>
        <mxCell id="wLQg3ytjEw0ioEY8ppGr-1" value="CPF: string" style="text;align=left;verticalAlign=top;spacingLeft=4;spacingRight=4;overflow=hidden;rotatable=0;points=[[0,0.5],[1,0.5]];portConstraint=eastwest;rounded=0;shadow=0;html=0;" vertex="1" parent="zkfFHV4jXpPFQw0GAbJ--0">
          <mxGeometry y="66" width="160" height="26" as="geometry" />
        </mxCell>
        <mxCell id="zkfFHV4jXpPFQw0GAbJ--3" value="Email: string" style="text;align=left;verticalAlign=top;spacingLeft=4;spacingRight=4;overflow=hidden;rotatable=0;points=[[0,0.5],[1,0.5]];portConstraint=eastwest;rounded=0;shadow=0;html=0;" parent="zkfFHV4jXpPFQw0GAbJ--0" vertex="1">
          <mxGeometry y="92" width="160" height="26" as="geometry" />
        </mxCell>
        <mxCell id="wLQg3ytjEw0ioEY8ppGr-2" value="&lt;&lt;Interface&gt;&gt;&#xa;Usuario" style="swimlane;fontStyle=2;align=center;verticalAlign=top;childLayout=stackLayout;horizontal=1;startSize=40;horizontalStack=0;resizeParent=1;resizeLast=0;collapsible=1;marginBottom=0;rounded=0;shadow=0;strokeWidth=1;" vertex="1" parent="WIyWlLk6GJQsqaUBKTNV-1">
          <mxGeometry x="220" y="40" width="200" height="92" as="geometry">
            <mxRectangle x="230" y="140" width="160" height="26" as="alternateBounds" />
          </mxGeometry>
        </mxCell>
        <mxCell id="wLQg3ytjEw0ioEY8ppGr-3" value="+ Cadastrar o UsuÃ¡rio" style="text;align=left;verticalAlign=top;spacingLeft=4;spacingRight=4;overflow=hidden;rotatable=0;points=[[0,0.5],[1,0.5]];portConstraint=eastwest;fontStyle=1" vertex="1" parent="wLQg3ytjEw0ioEY8ppGr-2">
          <mxGeometry y="40" width="200" height="26" as="geometry" />
        </mxCell>
        <mxCell id="wLQg3ytjEw0ioEY8ppGr-4" value="Input: usuario: Dados Usuario" style="text;align=left;verticalAlign=top;spacingLeft=4;spacingRight=4;overflow=hidden;rotatable=0;points=[[0,0.5],[1,0.5]];portConstraint=eastwest;rounded=0;shadow=0;html=0;" vertex="1" parent="wLQg3ytjEw0ioEY8ppGr-2">
          <mxGeometry y="66" width="200" height="26" as="geometry" />
        </mxCell>
        <mxCell id="wLQg3ytjEw0ioEY8ppGr-8" value="&lt;&lt;Mensagem&gt;&gt;&#xa;Dados Ativo" style="swimlane;fontStyle=2;align=center;verticalAlign=top;childLayout=stackLayout;horizontal=1;startSize=40;horizontalStack=0;resizeParent=1;resizeLast=0;collapsible=1;marginBottom=0;rounded=0;shadow=0;strokeWidth=1;" vertex="1" parent="WIyWlLk6GJQsqaUBKTNV-1">
          <mxGeometry x="40" y="170" width="160" height="118" as="geometry">
            <mxRectangle x="230" y="140" width="160" height="26" as="alternateBounds" />
          </mxGeometry>
        </mxCell>
        <mxCell id="wLQg3ytjEw0ioEY8ppGr-9" value="Nome: string" style="text;align=left;verticalAlign=top;spacingLeft=4;spacingRight=4;overflow=hidden;rotatable=0;points=[[0,0.5],[1,0.5]];portConstraint=eastwest;" vertex="1" parent="wLQg3ytjEw0ioEY8ppGr-8">
          <mxGeometry y="40" width="160" height="26" as="geometry" />
        </mxCell>
        <mxCell id="wLQg3ytjEw0ioEY8ppGr-10" value="Categoria: string" style="text;align=left;verticalAlign=top;spacingLeft=4;spacingRight=4;overflow=hidden;rotatable=0;points=[[0,0.5],[1,0.5]];portConstraint=eastwest;rounded=0;shadow=0;html=0;" vertex="1" parent="wLQg3ytjEw0ioEY8ppGr-8">
          <mxGeometry y="66" width="160" height="26" as="geometry" />
        </mxCell>
        <mxCell id="wLQg3ytjEw0ioEY8ppGr-11" value="Valor: float" style="text;align=left;verticalAlign=top;spacingLeft=4;spacingRight=4;overflow=hidden;rotatable=0;points=[[0,0.5],[1,0.5]];portConstraint=eastwest;rounded=0;shadow=0;html=0;" vertex="1" parent="wLQg3ytjEw0ioEY8ppGr-8">
          <mxGeometry y="92" width="160" height="26" as="geometry" />
        </mxCell>
        <mxCell id="wLQg3ytjEw0ioEY8ppGr-12" value="&lt;&lt;Interface&gt;&gt;&#xa;Ativo" style="swimlane;fontStyle=2;align=center;verticalAlign=top;childLayout=stackLayout;horizontal=1;startSize=40;horizontalStack=0;resizeParent=1;resizeLast=0;collapsible=1;marginBottom=0;rounded=0;shadow=0;strokeWidth=1;" vertex="1" parent="WIyWlLk6GJQsqaUBKTNV-1">
          <mxGeometry x="220" y="170" width="200" height="120" as="geometry">
            <mxRectangle x="230" y="140" width="160" height="26" as="alternateBounds" />
          </mxGeometry>
        </mxCell>
        <mxCell id="wLQg3ytjEw0ioEY8ppGr-13" value="+ Obter Ativo pelo Nome" style="text;align=left;verticalAlign=top;spacingLeft=4;spacingRight=4;overflow=hidden;rotatable=0;points=[[0,0.5],[1,0.5]];portConstraint=eastwest;fontStyle=1" vertex="1" parent="wLQg3ytjEw0ioEY8ppGr-12">
          <mxGeometry y="40" width="200" height="26" as="geometry" />
        </mxCell>
        <mxCell id="wLQg3ytjEw0ioEY8ppGr-14" value="Input: nome_ativo: string" style="text;align=left;verticalAlign=top;spacingLeft=4;spacingRight=4;overflow=hidden;rotatable=0;points=[[0,0.5],[1,0.5]];portConstraint=eastwest;rounded=0;shadow=0;html=0;" vertex="1" parent="wLQg3ytjEw0ioEY8ppGr-12">
          <mxGeometry y="66" width="200" height="26" as="geometry" />
        </mxCell>
        <mxCell id="wLQg3ytjEw0ioEY8ppGr-15" value="Output: ativo: Dados Ativo" style="text;align=left;verticalAlign=top;spacingLeft=4;spacingRight=4;overflow=hidden;rotatable=0;points=[[0,0.5],[1,0.5]];portConstraint=eastwest;rounded=0;shadow=0;html=0;" vertex="1" parent="wLQg3ytjEw0ioEY8ppGr-12">
          <mxGeometry y="92" width="200" height="26" as="geometry" />
        </mxCell>
        <mxCell id="wLQg3ytjEw0ioEY8ppGr-16" value="&lt;&lt;Mensagem&gt;&gt;&#xa;Dados Investimento" style="swimlane;fontStyle=2;align=center;verticalAlign=top;childLayout=stackLayout;horizontal=1;startSize=40;horizontalStack=0;resizeParent=1;resizeLast=0;collapsible=1;marginBottom=0;rounded=0;shadow=0;strokeWidth=1;" vertex="1" parent="WIyWlLk6GJQsqaUBKTNV-1">
          <mxGeometry x="340" y="310" width="160" height="200" as="geometry">
            <mxRectangle x="230" y="140" width="160" height="26" as="alternateBounds" />
          </mxGeometry>
        </mxCell>
        <mxCell id="wLQg3ytjEw0ioEY8ppGr-17" value="ID: string" style="text;align=left;verticalAlign=top;spacingLeft=4;spacingRight=4;overflow=hidden;rotatable=0;points=[[0,0.5],[1,0.5]];portConstraint=eastwest;" vertex="1" parent="wLQg3ytjEw0ioEY8ppGr-16">
          <mxGeometry y="40" width="160" height="26" as="geometry" />
        </mxCell>
        <mxCell id="wLQg3ytjEw0ioEY8ppGr-20" value="CPF_Usuario: string" style="text;align=left;verticalAlign=top;spacingLeft=4;spacingRight=4;overflow=hidden;rotatable=0;points=[[0,0.5],[1,0.5]];portConstraint=eastwest;rounded=0;shadow=0;html=0;" vertex="1" parent="wLQg3ytjEw0ioEY8ppGr-16">
          <mxGeometry y="66" width="160" height="26" as="geometry" />
        </mxCell>
        <mxCell id="wLQg3ytjEw0ioEY8ppGr-21" value="Nome_Ativo: string" style="text;align=left;verticalAlign=top;spacingLeft=4;spacingRight=4;overflow=hidden;rotatable=0;points=[[0,0.5],[1,0.5]];portConstraint=eastwest;rounded=0;shadow=0;html=0;" vertex="1" parent="wLQg3ytjEw0ioEY8ppGr-16">
          <mxGeometry y="92" width="160" height="26" as="geometry" />
        </mxCell>
        <mxCell id="wLQg3ytjEw0ioEY8ppGr-18" value="Tipo: string" style="text;align=left;verticalAlign=top;spacingLeft=4;spacingRight=4;overflow=hidden;rotatable=0;points=[[0,0.5],[1,0.5]];portConstraint=eastwest;rounded=0;shadow=0;html=0;" vertex="1" parent="wLQg3ytjEw0ioEY8ppGr-16">
          <mxGeometry y="118" width="160" height="26" as="geometry" />
        </mxCell>
        <mxCell id="wLQg3ytjEw0ioEY8ppGr-19" value="Periodo: int" style="text;align=left;verticalAlign=top;spacingLeft=4;spacingRight=4;overflow=hidden;rotatable=0;points=[[0,0.5],[1,0.5]];portConstraint=eastwest;rounded=0;shadow=0;html=0;" vertex="1" parent="wLQg3ytjEw0ioEY8ppGr-16">
          <mxGeometry y="144" width="160" height="26" as="geometry" />
        </mxCell>
        <mxCell id="wLQg3ytjEw0ioEY8ppGr-22" value="Valor_investido: float" style="text;align=left;verticalAlign=top;spacingLeft=4;spacingRight=4;overflow=hidden;rotatable=0;points=[[0,0.5],[1,0.5]];portConstraint=eastwest;rounded=0;shadow=0;html=0;" vertex="1" parent="wLQg3ytjEw0ioEY8ppGr-16">
          <mxGeometry y="170" width="160" height="26" as="geometry" />
        </mxCell>
        <mxCell id="wLQg3ytjEw0ioEY8ppGr-23" value="&lt;&lt;Interface&gt;&gt;&#xa;Investimento" style="swimlane;fontStyle=2;align=center;verticalAlign=top;childLayout=stackLayout;horizontal=1;startSize=40;horizontalStack=0;resizeParent=1;resizeLast=0;collapsible=1;marginBottom=0;rounded=0;shadow=0;strokeWidth=1;" vertex="1" parent="WIyWlLk6GJQsqaUBKTNV-1">
          <mxGeometry x="40" y="310" width="280" height="352" as="geometry">
            <mxRectangle x="230" y="140" width="160" height="26" as="alternateBounds" />
          </mxGeometry>
        </mxCell>
        <mxCell id="wLQg3ytjEw0ioEY8ppGr-24" value="+ Efetuar Investimento" style="text;align=left;verticalAlign=top;spacingLeft=4;spacingRight=4;overflow=hidden;rotatable=0;points=[[0,0.5],[1,0.5]];portConstraint=eastwest;fontStyle=1" vertex="1" parent="wLQg3ytjEw0ioEY8ppGr-23">
          <mxGeometry y="40" width="280" height="26" as="geometry" />
        </mxCell>
        <mxCell id="wLQg3ytjEw0ioEY8ppGr-25" value="Input: investimento: Dados Investimento" style="text;align=left;verticalAlign=top;spacingLeft=4;spacingRight=4;overflow=hidden;rotatable=0;points=[[0,0.5],[1,0.5]];portConstraint=eastwest;rounded=0;shadow=0;html=0;" vertex="1" parent="wLQg3ytjEw0ioEY8ppGr-23">
          <mxGeometry y="66" width="280" height="26" as="geometry" />
        </mxCell>
        <mxCell id="wLQg3ytjEw0ioEY8ppGr-27" value="" style="endArrow=none;html=1;rounded=0;entryX=0.996;entryY=0.914;entryDx=0;entryDy=0;entryPerimeter=0;exitX=0;exitY=0.922;exitDx=0;exitDy=0;exitPerimeter=0;" edge="1" parent="wLQg3ytjEw0ioEY8ppGr-23" source="wLQg3ytjEw0ioEY8ppGr-25" target="wLQg3ytjEw0ioEY8ppGr-25">
          <mxGeometry width="50" height="50" relative="1" as="geometry">
            <mxPoint y="100" as="sourcePoint" />
            <mxPoint x="250" y="120" as="targetPoint" />
          </mxGeometry>
        </mxCell>
        <mxCell id="wLQg3ytjEw0ioEY8ppGr-29" value="+ Gerar Lista de Investimentos" style="text;align=left;verticalAlign=top;spacingLeft=4;spacingRight=4;overflow=hidden;rotatable=0;points=[[0,0.5],[1,0.5]];portConstraint=eastwest;fontStyle=1" vertex="1" parent="wLQg3ytjEw0ioEY8ppGr-23">
          <mxGeometry y="92" width="280" height="26" as="geometry" />
        </mxCell>
        <mxCell id="wLQg3ytjEw0ioEY8ppGr-28" value="Input: id_usuario: string" style="text;align=left;verticalAlign=top;spacingLeft=4;spacingRight=4;overflow=hidden;rotatable=0;points=[[0,0.5],[1,0.5]];portConstraint=eastwest;rounded=0;shadow=0;html=0;" vertex="1" parent="wLQg3ytjEw0ioEY8ppGr-23">
          <mxGeometry y="118" width="280" height="26" as="geometry" />
        </mxCell>
        <mxCell id="wLQg3ytjEw0ioEY8ppGr-30" value="Output: lista: array Dados Resumo_Investimento" style="text;align=left;verticalAlign=top;spacingLeft=4;spacingRight=4;overflow=hidden;rotatable=0;points=[[0,0.5],[1,0.5]];portConstraint=eastwest;rounded=0;shadow=0;html=0;" vertex="1" parent="wLQg3ytjEw0ioEY8ppGr-23">
          <mxGeometry y="144" width="280" height="26" as="geometry" />
        </mxCell>
        <mxCell id="wLQg3ytjEw0ioEY8ppGr-38" value="" style="endArrow=none;html=1;rounded=0;exitX=0.003;exitY=0.987;exitDx=0;exitDy=0;exitPerimeter=0;entryX=1;entryY=0.987;entryDx=0;entryDy=0;entryPerimeter=0;" edge="1" parent="wLQg3ytjEw0ioEY8ppGr-23" source="wLQg3ytjEw0ioEY8ppGr-30" target="wLQg3ytjEw0ioEY8ppGr-30">
          <mxGeometry width="50" height="50" relative="1" as="geometry">
            <mxPoint x="100" y="160" as="sourcePoint" />
            <mxPoint x="150" y="110" as="targetPoint" />
          </mxGeometry>
        </mxCell>
        <mxCell id="wLQg3ytjEw0ioEY8ppGr-39" value="+ Gerar RelatÃ³rio de Investimento" style="text;align=left;verticalAlign=top;spacingLeft=4;spacingRight=4;overflow=hidden;rotatable=0;points=[[0,0.5],[1,0.5]];portConstraint=eastwest;fontStyle=1" vertex="1" parent="wLQg3ytjEw0ioEY8ppGr-23">
          <mxGeometry y="170" width="280" height="26" as="geometry" />
        </mxCell>
        <mxCell id="wLQg3ytjEw0ioEY8ppGr-40" value="Input: id_investimento: string" style="text;align=left;verticalAlign=top;spacingLeft=4;spacingRight=4;overflow=hidden;rotatable=0;points=[[0,0.5],[1,0.5]];portConstraint=eastwest;rounded=0;shadow=0;html=0;" vertex="1" parent="wLQg3ytjEw0ioEY8ppGr-23">
          <mxGeometry y="196" width="280" height="26" as="geometry" />
        </mxCell>
        <mxCell id="wLQg3ytjEw0ioEY8ppGr-41" value="Output: informacoes: Dados Investimento" style="text;align=left;verticalAlign=top;spacingLeft=4;spacingRight=4;overflow=hidden;rotatable=0;points=[[0,0.5],[1,0.5]];portConstraint=eastwest;rounded=0;shadow=0;html=0;" vertex="1" parent="wLQg3ytjEw0ioEY8ppGr-23">
          <mxGeometry y="222" width="280" height="26" as="geometry" />
        </mxCell>
        <mxCell id="wLQg3ytjEw0ioEY8ppGr-42" value="" style="endArrow=none;html=1;rounded=0;" edge="1" parent="wLQg3ytjEw0ioEY8ppGr-23">
          <mxGeometry width="50" height="50" relative="1" as="geometry">
            <mxPoint y="250" as="sourcePoint" />
            <mxPoint x="280" y="250" as="targetPoint" />
          </mxGeometry>
        </mxCell>
        <mxCell id="wLQg3ytjEw0ioEY8ppGr-43" value="+ Gerar Comprovante de Investimento" style="text;align=left;verticalAlign=top;spacingLeft=4;spacingRight=4;overflow=hidden;rotatable=0;points=[[0,0.5],[1,0.5]];portConstraint=eastwest;fontStyle=1" vertex="1" parent="wLQg3ytjEw0ioEY8ppGr-23">
          <mxGeometry y="248" width="280" height="26" as="geometry" />
        </mxCell>
        <mxCell id="wLQg3ytjEw0ioEY8ppGr-45" value="Output: dados_investimento: Dados Investimento" style="text;align=left;verticalAlign=top;spacingLeft=4;spacingRight=4;overflow=hidden;rotatable=0;points=[[0,0.5],[1,0.5]];portConstraint=eastwest;rounded=0;shadow=0;html=0;" vertex="1" parent="wLQg3ytjEw0ioEY8ppGr-23">
          <mxGeometry y="274" width="280" height="26" as="geometry" />
        </mxCell>
        <mxCell id="wLQg3ytjEw0ioEY8ppGr-46" value="" style="endArrow=none;html=1;rounded=0;exitX=0;exitY=1;exitDx=0;exitDy=0;exitPerimeter=0;entryX=1;entryY=0.997;entryDx=0;entryDy=0;entryPerimeter=0;" edge="1" parent="wLQg3ytjEw0ioEY8ppGr-23" source="wLQg3ytjEw0ioEY8ppGr-45" target="wLQg3ytjEw0ioEY8ppGr-45">
          <mxGeometry width="50" height="50" relative="1" as="geometry">
            <mxPoint y="330" as="sourcePoint" />
            <mxPoint x="280" y="330" as="targetPoint" />
            <Array as="points">
              <mxPoint x="140" y="300" />
            </Array>
          </mxGeometry>
        </mxCell>
        <mxCell id="wLQg3ytjEw0ioEY8ppGr-47" value="+ Exibir Tipos de Investimento" style="text;align=left;verticalAlign=top;spacingLeft=4;spacingRight=4;overflow=hidden;rotatable=0;points=[[0,0.5],[1,0.5]];portConstraint=eastwest;fontStyle=1" vertex="1" parent="wLQg3ytjEw0ioEY8ppGr-23">
          <mxGeometry y="300" width="280" height="26" as="geometry" />
        </mxCell>
        <mxCell id="wLQg3ytjEw0ioEY8ppGr-48" value="Output: lista_tipos: array String" style="text;align=left;verticalAlign=top;spacingLeft=4;spacingRight=4;overflow=hidden;rotatable=0;points=[[0,0.5],[1,0.5]];portConstraint=eastwest;rounded=0;shadow=0;html=0;" vertex="1" parent="wLQg3ytjEw0ioEY8ppGr-23">
          <mxGeometry y="326" width="280" height="26" as="geometry" />
        </mxCell>
        <mxCell id="wLQg3ytjEw0ioEY8ppGr-31" value="&lt;&lt;Mensagem&gt;&gt;&#xa;Dados Resumo_Investimento" style="swimlane;fontStyle=2;align=center;verticalAlign=top;childLayout=stackLayout;horizontal=1;startSize=40;horizontalStack=0;resizeParent=1;resizeLast=0;collapsible=1;marginBottom=0;rounded=0;shadow=0;strokeWidth=1;" vertex="1" parent="WIyWlLk6GJQsqaUBKTNV-1">
          <mxGeometry x="340" y="530" width="180" height="118" as="geometry">
            <mxRectangle x="230" y="140" width="160" height="26" as="alternateBounds" />
          </mxGeometry>
        </mxCell>
        <mxCell id="wLQg3ytjEw0ioEY8ppGr-32" value="ID: string" style="text;align=left;verticalAlign=top;spacingLeft=4;spacingRight=4;overflow=hidden;rotatable=0;points=[[0,0.5],[1,0.5]];portConstraint=eastwest;" vertex="1" parent="wLQg3ytjEw0ioEY8ppGr-31">
          <mxGeometry y="40" width="180" height="26" as="geometry" />
        </mxCell>
        <mxCell id="wLQg3ytjEw0ioEY8ppGr-35" value="Tipo: string" style="text;align=left;verticalAlign=top;spacingLeft=4;spacingRight=4;overflow=hidden;rotatable=0;points=[[0,0.5],[1,0.5]];portConstraint=eastwest;rounded=0;shadow=0;html=0;" vertex="1" parent="wLQg3ytjEw0ioEY8ppGr-31">
          <mxGeometry y="66" width="180" height="26" as="geometry" />
        </mxCell>
        <mxCell id="wLQg3ytjEw0ioEY8ppGr-36" value="Periodo: int" style="text;align=left;verticalAlign=top;spacingLeft=4;spacingRight=4;overflow=hidden;rotatable=0;points=[[0,0.5],[1,0.5]];portConstraint=eastwest;rounded=0;shadow=0;html=0;" vertex="1" parent="wLQg3ytjEw0ioEY8ppGr-31">
          <mxGeometry y="92" width="180" height="26" as="geometry" />
        </mxCell>
        <mxCell id="wLQg3ytjEw0ioEY8ppGr-49" value="&lt;&lt;Interface&gt;&gt;&#xa;Gerar RelatÃ³rio" style="swimlane;fontStyle=2;align=center;verticalAlign=top;childLayout=stackLayout;horizontal=1;startSize=40;horizontalStack=0;resizeParent=1;resizeLast=0;collapsible=1;marginBottom=0;rounded=0;shadow=0;strokeWidth=1;" vertex="1" parent="WIyWlLk6GJQsqaUBKTNV-1">
          <mxGeometry x="40" y="680" width="220" height="92" as="geometry">
            <mxRectangle x="230" y="140" width="160" height="26" as="alternateBounds" />
          </mxGeometry>
        </mxCell>
        <mxCell id="wLQg3ytjEw0ioEY8ppGr-50" value="+ Gerar RelatÃ³rio de Ativos" style="text;align=left;verticalAlign=top;spacingLeft=4;spacingRight=4;overflow=hidden;rotatable=0;points=[[0,0.5],[1,0.5]];portConstraint=eastwest;fontStyle=1" vertex="1" parent="wLQg3ytjEw0ioEY8ppGr-49">
          <mxGeometry y="40" width="220" height="26" as="geometry" />
        </mxCell>
        <mxCell id="wLQg3ytjEw0ioEY8ppGr-51" value="Output: lista_ativos: array Dados Ativo" style="text;align=left;verticalAlign=top;spacingLeft=4;spacingRight=4;overflow=hidden;rotatable=0;points=[[0,0.5],[1,0.5]];portConstraint=eastwest;rounded=0;shadow=0;html=0;" vertex="1" parent="wLQg3ytjEw0ioEY8ppGr-49">
          <mxGeometry y="66" width="220" height="26" as="geometry" />
        </mxCell>
        <mxCell id="wLQg3ytjEw0ioEY8ppGr-52" value="&lt;&lt;Interface&gt;&gt;&#xa;Validar InformaÃ§Ã£o" style="swimlane;fontStyle=2;align=center;verticalAlign=top;childLayout=stackLayout;horizontal=1;startSize=40;horizontalStack=0;resizeParent=1;resizeLast=0;collapsible=1;marginBottom=0;rounded=0;shadow=0;strokeWidth=1;" vertex="1" parent="WIyWlLk6GJQsqaUBKTNV-1">
          <mxGeometry x="280" y="680" width="220" height="92" as="geometry">
            <mxRectangle x="230" y="140" width="160" height="26" as="alternateBounds" />
          </mxGeometry>
        </mxCell>
        <mxCell id="wLQg3ytjEw0ioEY8ppGr-53" value="+ Validar InformaÃ§Ãµes do UsuÃ¡rio" style="text;align=left;verticalAlign=top;spacingLeft=4;spacingRight=4;overflow=hidden;rotatable=0;points=[[0,0.5],[1,0.5]];portConstraint=eastwest;fontStyle=1" vertex="1" parent="wLQg3ytjEw0ioEY8ppGr-52">
          <mxGeometry y="40" width="220" height="26" as="geometry" />
        </mxCell>
        <mxCell id="wLQg3ytjEw0ioEY8ppGr-54" value="Input: informacoes: Dados Usuario" style="text;align=left;verticalAlign=top;spacingLeft=4;spacingRight=4;overflow=hidden;rotatable=0;points=[[0,0.5],[1,0.5]];portConstraint=eastwest;rounded=0;shadow=0;html=0;" vertex="1" parent="wLQg3ytjEw0ioEY8ppGr-52">
          <mxGeometry y="66" width="220" height="26" as="geometry" />
        </mxCell>
        <mxCell id="wLQg3ytjEw0ioEY8ppGr-56" value="&lt;&lt;Interface&gt;&gt;&#xa;SolicitaÃ§Ã£o de InformaÃ§Ãµes" style="swimlane;fontStyle=2;align=center;verticalAlign=top;childLayout=stackLayout;horizontal=1;startSize=40;horizontalStack=0;resizeParent=1;resizeLast=0;collapsible=1;marginBottom=0;rounded=0;shadow=0;strokeWidth=1;" vertex="1" parent="WIyWlLk6GJQsqaUBKTNV-1">
          <mxGeometry x="520" y="680" width="300" height="118" as="geometry">
            <mxRectangle x="230" y="140" width="160" height="26" as="alternateBounds" />
          </mxGeometry>
        </mxCell>
        <mxCell id="wLQg3ytjEw0ioEY8ppGr-57" value="+ Solicitar InformaÃ§Ãµes sobre os Ativos para API" style="text;align=left;verticalAlign=top;spacingLeft=4;spacingRight=4;overflow=hidden;rotatable=0;points=[[0,0.5],[1,0.5]];portConstraint=eastwest;fontStyle=1" vertex="1" parent="wLQg3ytjEw0ioEY8ppGr-56">
          <mxGeometry y="40" width="300" height="26" as="geometry" />
        </mxCell>
        <mxCell id="wLQg3ytjEw0ioEY8ppGr-59" value="Input: categoria: string" style="text;align=left;verticalAlign=top;spacingLeft=4;spacingRight=4;overflow=hidden;rotatable=0;points=[[0,0.5],[1,0.5]];portConstraint=eastwest;rounded=0;shadow=0;html=0;" vertex="1" parent="wLQg3ytjEw0ioEY8ppGr-56">
          <mxGeometry y="66" width="300" height="26" as="geometry" />
        </mxCell>
        <mxCell id="wLQg3ytjEw0ioEY8ppGr-58" value="Output: informacoes: array Dados Ativo" style="text;align=left;verticalAlign=top;spacingLeft=4;spacingRight=4;overflow=hidden;rotatable=0;points=[[0,0.5],[1,0.5]];portConstraint=eastwest;rounded=0;shadow=0;html=0;" vertex="1" parent="wLQg3ytjEw0ioEY8ppGr-56">
          <mxGeometry y="92" width="300" height="26" as="geometry" />
        </mxCell>
      </root>
    </mxGraphModel>
  </diagram>
</mxfile>
